<?xml version="1.0" encoding="UTF-8" standalone="no"?>
<!-- Created with Inkscape (http://www.inkscape.org/) -->

<svg
   width="32"
   height="32"
   viewBox="0 0 8.4666667 8.4666667"
   version="1.1"
   id="svg1"
   xml:space="preserve"
   inkscape:version="1.3 (0e150ed6c4, 2023-07-21)"
   sodipodi:docname="insane.svg"
   xmlns:inkscape="http://www.inkscape.org/namespaces/inkscape"
   xmlns:sodipodi="http://sodipodi.sourceforge.net/DTD/sodipodi-0.dtd"
   xmlns="http://www.w3.org/2000/svg"
   xmlns:svg="http://www.w3.org/2000/svg"><sodipodi:namedview
     id="namedview1"
     pagecolor="#ffffff"
     bordercolor="#111111"
     borderopacity="1"
     inkscape:showpageshadow="0"
     inkscape:pageopacity="0"
     inkscape:pagecheckerboard="1"
     inkscape:deskcolor="#d1d1d1"
     inkscape:document-units="mm"
     inkscape:zoom="26.910886"
     inkscape:cx="16.759017"
     inkscape:cy="16.814757"
     inkscape:window-width="2512"
     inkscape:window-height="1349"
     inkscape:window-x="0"
     inkscape:window-y="0"
     inkscape:window-maximized="1"
     inkscape:current-layer="layer1" /><defs
     id="defs1" /><g
     inkscape:label="Layer 1"
     inkscape:groupmode="layer"
     id="layer1"><path
       id="path3-5"
       style="fill:#ff902a;fill-opacity:1;stroke:#af0e0e;stroke-width:0.112678;stroke-opacity:0"
       d="M 3.0863601,0.13102577 A 1.7302628,4.1024064 0 0 0 1.3563389,4.2333333 1.7302628,4.1024064 0 0 0 3.0863601,8.3356409 1.7302628,4.1024064 0 0 0 4.8163813,4.2333333 1.7302628,4.1024064 0 0 0 3.0863601,0.13102577 Z M 3.3039635,0.84871545 A 1.2856012,3.3287278 0 0 1 4.5899361,4.1779508 1.2856012,3.3287278 0 0 1 3.3039635,7.5066151 1.2856012,3.3287278 0 0 1 2.0184822,4.1779508 1.2856012,3.3287278 0 0 1 3.3039635,0.84871545 Z" /><path
       id="path3-5-6-9"
       style="fill:#ff902a;fill-opacity:1;stroke:#af0e0e;stroke-width:0.118662;stroke-opacity:0"
       d="M 7.9772252,0.89708584 A 1.668599,4.717968 55.062593 0 1 5.227982,4.9197259 1.668599,4.717968 55.062593 0 1 0.31027499,6.3892028 1.668599,4.717968 55.062593 0 1 3.0595182,2.3665629 1.668599,4.717968 55.062593 0 1 7.9772252,0.89708584 Z M 7.1701916,1.2169332 A 1.2398938,3.8278619 54.940378 0 0 3.2531881,2.4965841 1.2398938,3.8278619 54.940378 0 0 0.94859742,5.6736891 1.2398938,3.8278619 54.940378 0 0 4.8647594,4.3940581 1.2398938,3.8278619 54.940378 0 0 7.1701916,1.2169332 Z" /><path
       id="path3-5-6-9-2"
       style="fill:#ff902a;fill-opacity:1;stroke:#af0e0e;stroke-width:0.118662;stroke-opacity:0"
       d="M 7.9772252,7.5695808 A 4.717968,1.668599 34.937407 0 0 5.227982,3.5469408 4.717968,1.668599 34.937407 0 0 0.31027499,2.0774639 4.717968,1.668599 34.937407 0 0 3.0595182,6.1001038 4.717968,1.668599 34.937407 0 0 7.9772252,7.5695808 Z M 7.1701916,7.2497335 A 3.8278619,1.2398938 35.059622 0 1 3.2531881,5.9700826 3.8278619,1.2398938 35.059622 0 1 0.94859742,2.7929776 3.8278619,1.2398938 35.059622 0 1 4.8647594,4.0726086 3.8278619,1.2398938 35.059622 0 1 7.1701916,7.2497335 Z" /><circle
       style="fill:#ff902a;fill-opacity:1;stroke:#af0e0e;stroke-width:0.0345584;stroke-opacity:0"
       id="path3"
       cx="3.1754053"
       cy="4.1919317"
       r="0.81712604" /></g></svg>
