<?xml version="1.0" standalone="no"?>
<!DOCTYPE svg PUBLIC "-//W3C//DTD SVG 20010904//EN"
 "http://www.w3.org/TR/2001/REC-SVG-20010904/DTD/svg10.dtd">
<svg version="1.0" xmlns="http://www.w3.org/2000/svg"
 width="700.000000pt" height="700.000000pt" viewBox="0 0 700.000000 700.000000"
 preserveAspectRatio="xMidYMid meet">
<metadata>
Created by potrace 1.14, written by Peter Selinger 2001-2017
</metadata>
<g transform="translate(0.000000,700.000000) scale(0.100000,-0.100000)"
fill="#000000" stroke="none">
<path d="M2391 6870 c-188 -53 -378 -199 -537 -410 -164 -218 -328 -553 -434
-888 -37 -114 -24 -105 -120 -88 -277 47 -575 38 -759 -23 -96 -31 -177 -78
-244 -141 -107 -100 -157 -221 -162 -391 -10 -334 192 -777 585 -1287 l111
-144 -74 -91 c-99 -124 -209 -279 -292 -412 -74 -119 -185 -322 -185 -340 0
-6 -4 -15 -9 -20 -11 -13 -76 -185 -96 -258 -39 -136 -51 -310 -30 -422 19
-103 75 -205 154 -281 90 -86 285 -164 454 -180 129 -13 357 -7 477 12 111 17
154 23 155 21 1 -1 30 -83 64 -182 210 -603 494 -1009 815 -1165 115 -56 198
-73 321 -67 189 10 343 87 513 256 163 162 259 304 391 576 37 77 83 178 101
225 18 47 35 87 37 89 2 3 22 -6 46 -18 118 -64 469 -237 592 -291 451 -200
929 -354 1260 -405 28 -5 56 -9 63 -11 145 -28 556 -25 637 6 14 5 25 7 25 5
0 -8 141 46 192 74 119 66 209 175 249 300 39 120 32 316 -17 494 -43 155
-161 406 -284 602 -66 105 -248 366 -270 385 -3 3 -31 37 -62 76 -31 39 -63
77 -70 85 -7 8 -24 27 -36 44 -20 25 -103 118 -205 229 -168 182 -495 493
-691 657 -7 6 22 37 98 102 179 154 583 556 737 732 121 138 286 344 352 439
41 59 128 191 172 261 43 68 165 302 185 355 7 19 19 49 26 65 7 17 21 59 32
95 48 158 61 239 57 370 -6 209 -77 341 -241 449 -145 97 -312 131 -599 126
-175 -4 -226 -7 -295 -21 -14 -2 -43 -7 -65 -10 -131 -19 -423 -94 -634 -164
-171 -56 -490 -181 -619 -241 -46 -21 -85 -39 -88 -39 -7 0 -405 -199 -477
-238 -31 -18 -61 -32 -65 -32 -4 0 -14 17 -21 38 -7 20 -19 51 -26 67 -8 17
-30 68 -50 115 -51 119 -136 278 -210 391 -171 263 -356 428 -565 504 -100 36
-270 43 -369 15z m489 -600 c85 -33 135 -66 212 -138 113 -106 249 -305 317
-465 l20 -46 -27 -14 c-72 -36 -391 -237 -596 -374 l-229 -154 -126 54 c-128
55 -390 154 -470 178 -23 7 -45 19 -48 27 -8 20 59 195 133 347 85 174 105
207 200 330 113 145 209 219 349 265 70 23 193 19 265 -10z m2780 -135 c145
-30 260 -106 311 -207 29 -57 32 -72 35 -179 5 -178 -59 -368 -209 -619 -70
-116 -218 -329 -258 -370 -8 -8 -28 -33 -44 -55 -17 -21 -37 -47 -45 -55 -8
-9 -44 -50 -80 -91 -102 -116 -392 -412 -470 -479 -14 -12 -43 -38 -65 -58
-22 -20 -77 -70 -121 -110 l-82 -72 -128 95 c-136 101 -357 257 -486 344 -50
33 -79 59 -82 74 -3 12 -9 65 -15 117 -24 206 -85 554 -123 695 -6 22 -11 45
-13 50 -6 30 -21 84 -57 209 -21 76 -38 140 -36 141 5 5 400 201 448 223 455
205 896 337 1190 359 47 3 86 6 87 7 9 7 184 -7 243 -19z m-2147 -722 c58
-148 147 -495 186 -728 6 -33 13 -73 16 -90 3 -16 8 -55 11 -85 7 -53 6 -54
-12 -39 -21 17 -264 163 -354 212 -30 17 -90 50 -132 74 -43 24 -163 86 -268
139 l-190 97 58 40 c158 111 644 417 663 417 4 0 14 -17 22 -37z m-2277 -585
c-7 -30 -24 -131 -31 -188 -3 -25 -8 -52 -10 -60 -2 -8 -7 -46 -11 -85 -3 -38
-7 -72 -9 -75 -2 -3 -6 -41 -10 -85 -3 -44 -8 -91 -10 -105 -2 -14 -7 -70 -11
-125 -4 -55 -8 -113 -9 -130 -2 -16 -3 -55 -4 -85 -1 -53 -4 -57 -66 -125 -40
-43 -68 -65 -74 -60 -49 52 -227 395 -246 475 -2 8 -11 44 -21 80 -12 43 -18
103 -18 175 -1 100 1 115 27 170 36 76 96 138 172 177 64 33 193 63 282 67 51
2 53 1 49 -21z m612 -74 c32 -8 92 -27 136 -41 l79 -25 -34 -27 c-19 -14 -94
-76 -168 -138 -74 -62 -136 -112 -137 -110 -2 2 5 49 30 212 14 90 26 145 33
145 3 0 30 -7 61 -16z m469 -160 c21 -9 47 -20 58 -25 197 -81 498 -227 724
-352 141 -78 363 -208 371 -218 3 -3 10 -8 16 -10 7 -2 77 -47 158 -99 l146
-95 1 -55 c2 -106 2 -356 -1 -445 l-3 -90 -91 -61 c-274 -182 -610 -376 -921
-529 -189 -93 -485 -225 -504 -225 -20 0 -342 276 -493 421 -86 83 -79 61 -95
269 -10 123 -10 784 -1 920 l7 105 86 82 c166 159 476 423 496 423 5 0 25 -7
46 -16z m1785 -1019 c53 -40 93 -76 90 -81 -4 -6 -47 -39 -97 -74 -49 -35 -96
-68 -102 -73 -10 -7 -13 25 -13 152 0 127 3 161 13 155 6 -5 55 -40 109 -79z
m-3035 -342 c60 -66 63 -70 64 -123 0 -30 2 -66 4 -80 1 -14 5 -74 9 -135 4
-60 9 -121 11 -135 2 -14 7 -54 10 -90 4 -36 9 -78 11 -95 2 -16 6 -54 10 -83
3 -29 7 -63 10 -75 2 -12 11 -69 20 -127 8 -58 17 -113 21 -124 5 -17 0 -18
-78 -12 -217 17 -361 98 -425 239 -23 51 -28 78 -30 152 -4 138 27 263 106
433 43 92 177 322 187 322 4 0 35 -30 70 -67z m3691 -185 c222 -196 475 -449
627 -624 33 -38 62 -71 65 -74 17 -15 136 -169 202 -260 153 -211 272 -434
324 -606 24 -76 28 -108 28 -214 1 -119 -1 -128 -28 -184 -64 -130 -177 -200
-371 -231 -45 -7 -267 -8 -305 -1 -14 3 -45 7 -70 10 -25 3 -56 8 -70 11 -23
5 -72 14 -112 21 -9 1 -61 14 -115 29 -54 15 -105 28 -113 30 -88 21 -384 130
-575 212 -118 51 -536 254 -554 269 -2 1 11 49 27 106 38 127 79 282 87 325 3
18 9 43 15 57 5 15 8 26 5 26 -2 0 0 14 5 32 5 17 12 50 15 72 3 23 8 48 10
56 6 19 32 170 40 230 3 25 10 70 15 100 6 30 12 78 15 105 9 89 16 130 25
133 30 11 466 318 610 430 36 28 67 51 68 51 2 1 61 -50 130 -111z m-2888
-579 c30 -25 82 -67 115 -94 33 -26 64 -51 68 -55 5 -5 -44 -24 -110 -45 -65
-20 -123 -38 -130 -40 -16 -5 -20 9 -48 172 -33 188 -33 184 13 142 20 -19 62
-56 92 -80z m1830 -60 c-12 -63 -24 -125 -26 -139 -3 -14 -7 -31 -10 -39 -2
-8 -7 -30 -10 -50 -3 -20 -10 -54 -16 -76 -5 -22 -11 -47 -13 -55 -11 -54 -84
-293 -118 -383 -38 -104 -40 -107 -61 -94 -11 7 -82 50 -156 96 -190 116 -299
186 -418 268 l-103 71 168 85 c253 128 298 151 301 160 2 4 7 7 12 7 7 0 62
30 255 140 17 10 71 42 120 72 50 31 91 55 93 53 2 -2 -7 -54 -18 -116z
m-1060 -529 c151 -108 441 -296 663 -429 102 -61 101 -49 21 -188 -322 -556
-737 -622 -1072 -168 -74 100 -75 102 -131 200 -42 75 -115 235 -149 326 l-21
57 105 36 c127 44 355 134 444 175 36 16 70 30 75 30 6 0 35 -18 65 -39z"/>
<path d="M2464 4190 c-237 -61 -418 -236 -491 -477 -13 -42 -17 -92 -17 -183
0 -111 3 -134 28 -205 70 -203 215 -351 418 -427 77 -29 92 -32 218 -32 144
-1 209 13 320 70 109 55 228 177 287 296 55 107 68 168 67 308 0 110 -3 135
-28 205 -68 196 -208 344 -396 418 -88 35 -108 38 -230 42 -78 2 -124 -2 -176
-15z"/>
</g>
</svg>
